<svg xmlns="http://www.w3.org/2000/svg" width="33" height="33" viewBox="0 0 33 33" fill="none">
<circle cx="16.5" cy="16.5" r="16.5" fill="#2A70FA"/>
<path d="M22.9062 8.125H11.0938C10.87 8.125 10.6554 8.21389 10.4971 8.37213C10.3389 8.53036 10.25 8.74497 10.25 8.96875V21.625C10.25 21.8225 10.302 22.0164 10.4007 22.1874C10.4995 22.3584 10.6415 22.5004 10.8125 22.5992V23.875H13.3438V22.75H20.6562V23.875H23.1875V22.5992C23.3585 22.5004 23.5005 22.3584 23.5993 22.1874C23.698 22.0164 23.75 21.8225 23.75 21.625V8.96875C23.75 8.74497 23.6611 8.53036 23.5029 8.37213C23.3446 8.21389 23.13 8.125 22.9062 8.125V8.125ZM14.1812 20.0595C14.1581 20.2703 14.0759 20.4703 13.9441 20.6364C13.8123 20.8025 13.6362 20.928 13.4362 20.9984C13.2361 21.0687 13.0203 21.0811 12.8135 21.0341C12.6067 20.9871 12.4174 20.8827 12.2675 20.7327C12.1175 20.5828 12.013 20.3935 11.9659 20.1868C11.9188 19.98 11.9312 19.7641 12.0015 19.5641C12.0718 19.364 12.1972 19.1879 12.3633 19.056C12.5294 18.9242 12.7294 18.842 12.9402 18.8188C13.1075 18.8011 13.2766 18.8209 13.4352 18.877C13.5938 18.9331 13.7379 19.0239 13.8569 19.1428C13.9759 19.2618 14.0667 19.4058 14.1229 19.5644C14.179 19.723 14.1989 19.8922 14.1812 20.0595V20.0595ZM16.4375 17.125H11.375V11.5H16.4375V17.125ZM17 10.375H11.3912L11.375 9.25H22.625L22.6088 10.375H17ZM17.5625 11.5H22.625V17.125H17.5625V11.5ZM19.8188 19.8155C19.8419 19.6047 19.9241 19.4047 20.0559 19.2386C20.1877 19.0725 20.3638 18.947 20.5638 18.8766C20.7639 18.8063 20.9797 18.7939 21.1865 18.8409C21.3933 18.8879 21.5826 18.9923 21.7325 19.1423C21.8825 19.2922 21.987 19.4815 22.0341 19.6882C22.0812 19.895 22.0688 20.1109 21.9985 20.3109C21.9282 20.511 21.8028 20.6871 21.6367 20.819C21.4706 20.9508 21.2706 21.033 21.0598 21.0562C20.8925 21.0739 20.7234 21.0541 20.5648 20.998C20.4062 20.9419 20.2621 20.8511 20.1431 20.7322C20.0241 20.6132 19.9333 20.4692 19.8771 20.3106C19.821 20.152 19.8011 19.9828 19.8188 19.8155Z" fill="white"/>
</svg>